<svg xmlns="http://www.w3.org/2000/svg" width="17" height="17" viewBox="0 0 17 17">
  <metadata><?xpacket begin="﻿" id="W5M0MpCehiHzreSzNTczkc9d"?>
<x:xmpmeta xmlns:x="adobe:ns:meta/" x:xmptk="Adobe XMP Core 5.6-c142 79.160924, 2017/07/13-01:06:39        ">
   <rdf:RDF xmlns:rdf="http://www.w3.org/1999/02/22-rdf-syntax-ns#">
      <rdf:Description rdf:about=""/>
   </rdf:RDF>
</x:xmpmeta>
                                                                                                    
                                                                                                    
                                                                                                    
                                                                                                    
                                                                                                    
                                                                                                    
                                                                                                    
                                                                                                    
                                                                                                    
                                                                                                    
                                                                                                    
                                                                                                    
                                                                                                    
                                                                                                    
                                                                                                    
                                                                                                    
                                                                                                    
                                                                                                    
                                                                                                    
                                                                                                    
                           
<?xpacket end="w"?></metadata>
<defs>
    <style>
      .cls-1 {
        fill: #129968;
        fill-rule: evenodd;
      }
    </style>
  </defs>
  <path id="Forma_1" data-name="Forma 1" class="cls-1" d="M1603.99,98.992a1.317,1.317,0,0,0-.65-0.966l-4.19-2.415a1.323,1.323,0,0,0-1.59.21l-0.82.826a0.607,0.607,0,0,1-.81.045,25.266,25.266,0,0,1-1.91-1.714,23.707,23.707,0,0,1-1.71-1.906,0.6,0.6,0,0,1,.04-0.809l0.83-.826a1.323,1.323,0,0,0,.21-1.584l-2.42-4.194a1.28,1.28,0,0,0-.96-0.647,1.3,1.3,0,0,0-1.1.373l-1.25,1.245c-0.87.868-.88,2.458-0.04,4.475a21.9,21.9,0,0,0,10.28,10.273,7,7,0,0,0,2.63.623,2.51,2.51,0,0,0,1.84-.662l1.25-1.245A1.319,1.319,0,0,0,1603.99,98.992Zm-5.12-2.9,4.2,2.415a0.769,0.769,0,0,1,.37.561,0.728,0.728,0,0,1-.14.554l-5.57-3.181,0.22-.227A0.765,0.765,0,0,1,1598.87,96.088Zm-8.93-10.531a0.771,0.771,0,0,1,.56.376l2.41,4.194a0.772,0.772,0,0,1-.12.921l-0.21.208-3.2-5.555a0.756,0.756,0,0,1,.45-0.15A0.864,0.864,0,0,1,1589.94,85.557Zm12.04,15.391c-0.69.691-2.1,0.661-3.87-.079a21.362,21.362,0,0,1-9.98-9.978c-0.74-1.771-.77-3.182-0.08-3.872l0.93-.924,3.2,5.564-0.22.215a1.155,1.155,0,0,0-.08,1.544c0.54,0.667,1.13,1.323,1.75,1.95s1.29,1.217,1.95,1.754a1.163,1.163,0,0,0,1.55-.085l0.19-.2,5.58,3.186Z" transform="translate(-1587 -85)"/>
</svg>
